<svg id="bold" enable-background="new 0 0 24 24" height="512" viewBox="0 0 24 24" width="512" xmlns="http://www.w3.org/2000/svg"><path d="m10.983 8.017c-2.757 0-5 2.243-5 5s2.243 5 5 5 5-2.243 5-5-2.243-5-5-5zm0 8c-1.654 0-3-1.346-3-3s1.346-3 3-3 3 1.346 3 3-1.346 3-3 3z"/><path d="m14.034 15.034c.256 0 .512.098.707.293l2.966 2.966c.391.391.391 1.023 0 1.414s-1.023.391-1.414 0l-2.966-2.966c-.391-.391-.391-1.023 0-1.414.195-.196.451-.293.707-.293z"/><path d="m21 1h-18c-1.654 0-3 1.346-3 3v16c0 1.654 1.346 3 3 3h18c1.654 0 3-1.346 3-3v-16c0-1.654-1.346-3-3-3zm0 20h-18c-.551 0-1-.448-1-1v-14h20v14c0 .552-.449 1-1 1z"/></svg>