<svg id="Layer_1" enable-background="new 0 0 512 512" height="512" viewBox="0 0 512 512" width="512" xmlns="http://www.w3.org/2000/svg"><g><path d="m498.363 241.062c-4.819-2.575-16.594-16.714-25.264-27.124-18.68-22.428-44.263-53.144-79.2-78.264-41.807-30.058-88.203-45.299-137.899-45.299s-96.092 15.241-137.899 45.299c-34.938 25.12-60.521 55.836-79.2 78.264-8.67 10.41-20.445 24.549-25.264 27.124-7.645.688-13.637 7.114-13.637 14.938s5.992 14.25 13.637 14.938c4.819 2.575 16.594 16.714 25.264 27.124 18.68 22.428 44.263 53.144 79.2 78.264 41.807 30.058 88.203 45.299 137.899 45.299s96.092-15.241 137.899-45.299c34.938-25.12 60.521-55.836 79.2-78.264 8.67-10.41 20.445-24.549 25.264-27.124 7.645-.688 13.637-7.114 13.637-14.938s-5.992-14.25-13.637-14.938zm-106.738 14.938c0 65.271-46.349 119.916-107.862 132.763l101.412-174.101c4.183 13.039 6.45 26.928 6.45 41.338zm-264.8-41.338 101.412 174.101c-61.513-12.847-107.862-67.492-107.862-132.763 0-14.41 2.267-28.299 6.45-41.338zm129.175 162.161-104.939-180.156h209.878zm101.957-210.156h-203.914c24.877-28.357 61.36-46.292 101.957-46.292s77.081 17.935 101.957 46.292zm-296.004 112.196c-7.584-9.106-14.011-16.822-19.927-22.863 5.916-6.041 12.342-13.757 19.927-22.863 11.983-14.387 26.723-32.08 44.915-49.15-10.563 21.786-16.493 46.22-16.493 72.013s5.93 50.227 16.493 72.013c-18.193-17.07-32.932-34.763-44.915-49.15zm388.094 0c-11.983 14.387-26.723 32.08-44.915 49.15 10.563-21.787 16.493-46.22 16.493-72.013s-5.93-50.227-16.493-72.013c18.192 17.07 32.932 34.763 44.915 49.15 7.584 9.106 14.011 16.822 19.927 22.863-5.916 6.041-12.342 13.757-19.927 22.863z"/></g></svg>