<?xml version="1.0"?>
<svg xmlns="http://www.w3.org/2000/svg" height="512" viewBox="0 0 512 512" width="512" class=""><g><path d="m292 348c0-10.214844-4.28125-19.441406-11.140625-26 6.859375-6.558594 11.140625-15.785156 11.140625-26s-4.28125-19.441406-11.140625-26c6.859375-6.558594 11.140625-15.785156 11.140625-26s-4.28125-19.441406-11.140625-26c6.859375-6.558594 11.140625-15.785156 11.140625-26s-4.28125-19.441406-11.140625-26c6.859375-6.558594 11.140625-15.785156 11.140625-26s-4.28125-19.441406-11.140625-26c6.859375-6.558594 11.140625-15.785156 11.140625-26s-4.28125-19.441406-11.140625-26c6.859375-6.558594 11.140625-15.785156 11.140625-26 0-19.851562-16.148438-36-36-36s-36 16.148438-36 36c0 10.214844 4.28125 19.441406 11.140625 26-6.859375 6.558594-11.140625 15.785156-11.140625 26s4.28125 19.441406 11.140625 26c-6.859375 6.558594-11.140625 15.785156-11.140625 26s4.28125 19.441406 11.140625 26c-6.859375 6.558594-11.140625 15.785156-11.140625 26s4.28125 19.441406 11.140625 26c-6.859375 6.558594-11.140625 15.785156-11.140625 26s4.28125 19.441406 11.140625 26c-6.859375 6.558594-11.140625 15.785156-11.140625 26s4.28125 19.441406 11.140625 26c-6.859375 6.558594-11.140625 15.785156-11.140625 26 0 19.851562 16.148438 36 36 36s36-16.148438 36-36zm-52-312c0-8.820312 7.179688-16 16-16s16 7.179688 16 16-7.179688 16-16 16-16-7.179688-16-16zm0 52c0-8.820312 7.179688-16 16-16s16 7.179688 16 16-7.179688 16-16 16-16-7.179688-16-16zm0 52c0-8.820312 7.179688-16 16-16s16 7.179688 16 16-7.179688 16-16 16-16-7.179688-16-16zm0 52c0-8.820312 7.179688-16 16-16s16 7.179688 16 16-7.179688 16-16 16-16-7.179688-16-16zm0 52c0-8.820312 7.179688-16 16-16s16 7.179688 16 16-7.179688 16-16 16-16-7.179688-16-16zm0 52c0-8.820312 7.179688-16 16-16s16 7.179688 16 16-7.179688 16-16 16-16-7.179688-16-16zm16 68c-8.820312 0-16-7.179688-16-16s7.179688-16 16-16 16 7.179688 16 16-7.179688 16-16 16zm0 0" data-original="#000000" class="active-path" data-old_color="#000000" style="fill:#F6FFF6"/><path d="m196.179688 352.734375-22.433594-17.4375c-20.007813-15.550781-31.480469-39.003906-31.480469-64.34375v-53.210937c0-21.277344-17.3125-38.589844-38.589844-38.589844-6.773437 0-13.140625 1.761718-18.675781 4.835937v-77.574219c0-11.351562-4.421875-22.023437-12.449219-30.050781-8.027343-8.027343-18.699219-12.449219-30.054687-12.449219-23.429688 0-42.496094 19.066407-42.496094 42.5v216.140626c.00390625 42.71875 14.457031 84.800781 40.699219 118.496093l52.253906 67.09375c1.972656 2.53125 4.917969 3.855469 7.894531 3.855469 2.148438 0 4.3125-.6875 6.140625-2.109375 4.355469-3.394531 5.136719-9.675781 1.742188-14.035156l-52.253907-67.09375c-23.519531-30.199219-36.472656-67.917969-36.476562-106.207031v-216.140626c0-12.402343 10.09375-22.5 22.5-22.5 6.011719 0 11.660156 2.34375 15.910156 6.59375 4.25 4.246094 6.589844 9.898438 6.589844 15.90625l.089844 210.71875c0 20.742188 5.976562 40.894532 17.285156 58.285157l14.296875 21.980469c1.441406 2.21875 3.707031 3.773437 6.296875 4.328124l.578125.121094c5.398437 1.152344 10.714844-2.289062 11.867187-7.691406.796876-3.726562-.597656-7.414062-3.3125-9.71875l-12.960937-19.925781c-9.195313-14.132813-14.054687-30.519531-14.054687-47.378907v-99.390624c0-10.25 8.339843-18.589844 18.589843-18.589844s18.589844 8.339844 18.589844 18.589844v53.210937c0 31.558594 14.289063 60.765625 39.203125 80.132813l22.433594 17.4375c19.128906 14.871093 30.097656 37.292968 30.097656 61.515624v71.960938c0 5.523438 4.476562 10 10 10s10-4.476562 10-10v-71.960938c0-30.441406-13.785156-58.617187-37.820312-77.304687zm0 0" data-original="#000000" class="active-path" data-old_color="#000000" style="fill:#F6FFF6"/><path d="m502 208c-2.628906 0-5.210938 1.070312-7.070312 2.929688-1.859376 1.859374-2.929688 4.441406-2.929688 7.070312s1.070312 5.210938 2.929688 7.070312c1.859374 1.859376 4.441406 2.929688 7.070312 2.929688s5.210938-1.070312 7.070312-2.929688c1.859376-1.859374 2.929688-4.441406 2.929688-7.070312s-1.070312-5.210938-2.929688-7.070312c-1.859374-1.859376-4.441406-2.929688-7.070312-2.929688zm0 0" data-original="#000000" class="active-path" data-old_color="#000000" style="fill:#F6FFF6"/><path d="m502 250.332031c-5.523438 0-10 4.480469-10 10v62.222657c-.003906 38.289062-12.957031 76.007812-36.480469 106.207031l-52.253906 67.09375c-3.394531 4.359375-2.613281 10.640625 1.746094 14.035156 1.824219 1.421875 3.988281 2.109375 6.136719 2.109375 2.980468 0 5.925781-1.324219 7.898437-3.855469l52.253906-67.09375c26.242188-33.695312 40.695313-75.777343 40.695313-118.496093v-62.222657c.003906-5.519531-4.472656-10-9.996094-10zm0 0" data-original="#000000" class="active-path" data-old_color="#000000" style="fill:#F6FFF6"/><path d="m408.449219 401.851562.582031-.125c2.589844-.550781 4.855469-2.109374 6.296875-4.328124l14.296875-21.980469c11.308594-17.386719 17.285156-37.542969 17.285156-58.285157l.089844-210.71875c0-6.007812 2.339844-11.660156 6.589844-15.90625 4.25-4.25 9.898437-6.59375 15.910156-6.59375 12.40625 0 22.5 10.097657 22.5 22.5v74.585938c0 5.523438 4.476562 10 10 10s10-4.476562 10-10v-74.585938c0-23.433593-19.066406-42.5-42.5-42.5-11.351562 0-22.023438 4.421876-30.050781 12.449219-8.027344 8.027344-12.449219 18.699219-12.449219 30.050781v77.574219c-5.539062-3.074219-11.90625-4.835937-18.675781-4.835937-21.277344 0-38.589844 17.3125-38.589844 38.589844v53.210937c0 25.339844-11.472656 48.792969-31.480469 64.34375l-22.433594 17.4375c-24.035156 18.6875-37.820312 46.863281-37.820312 77.304687v71.960938c0 5.523438 4.476562 10 10 10s10-4.476562 10-10v-71.960938c0-24.222656 10.96875-46.644531 30.097656-61.511718l22.429688-17.4375c24.917968-19.371094 39.207031-48.578125 39.207031-80.136719v-53.210937c0-10.25 8.339844-18.589844 18.589844-18.589844s18.589843 8.339844 18.589843 18.589844v99.390624c0 16.859376-4.859374 33.246094-14.054687 47.378907l-12.960937 19.925781c-2.714844 2.304688-4.109376 5.992188-3.3125 9.722656 1.152343 5.398438 6.460937 8.847656 11.863281 7.691406zm0 0" data-original="#000000" class="active-path" data-old_color="#000000" style="fill:#F6FFF6"/></g> </svg>
