<svg height="512" viewBox="0 0 60 60" width="512" xmlns="http://www.w3.org/2000/svg"><g id="Page-1" fill="none" fill-rule="evenodd"><g id="001---Throat-Chakra" fill-rule="nonzero" transform="translate(-1 -1)"><path id="Shape" d="m35.75 7.16c-.3078261.36276896-.5636175.76665011-.76 1.2-1.3162327-.24146972-2.6518026-.36197227-3.99-.36-1.6752145-.00108313-3.3453959.18337466-4.98.55.0203591-.47167622.1010146-.93880601.24-1.39 1.01-3.43 4.74-4.3 4.74-5.16 0 .86 3.73 1.73 4.75 5.16z" fill="#02a9f4"/><path id="Shape" d="m31 2c0 .361-.661.727-1.5 1.281 1.518788.85501042 2.6741374 2.23396443 3.25 3.879-.2285246.27562296-.4272941.57461528-.593.892.9500527.04060338 1.8964182.14349099 2.833.308.1963825-.43334989.4521739-.83723104.76-1.2-1.02-3.43-4.75-4.3-4.75-5.16z" fill="#0377bc"/><g fill="#02a9f4"><path id="Shape" d="m26.26 7.16c-.1389854.45119399-.2196409.91832378-.24 1.39-2.9497626.64993137-5.7406533 1.8805068-8.21 3.62-.1589228-.4462978-.266287-.9093057-.32-1.38-.37-3.56 2.74-5.79 2.41-6.58.33.79 4.11.17 6.36 2.95z"/><path id="Shape" d="m17.81 12.17c-2.4784438 1.7277408-4.5892408 3.9303115-6.21 6.48-.314893-.3496611-.5868251-.7357375-.81-1.15v-.01c-1.71-3.15.31-6.39-.3-7 .61.61 3.85-1.41 7 .3.053713.4706943.1610772.9337022.32 1.38z"/><path id="Shape" d="m11.6 18.65c-1.62795845 2.5420769-2.72967352 5.3847738-3.24 8.36-.4309215-.1967365-.83432744-.4488652-1.2-.75-2.78-2.25-2.16-6.03-2.95-6.36.79.33 3.02-2.78 6.58-2.41v.01c.2231749.4142625.495107.8003389.81 1.15z"/><path id="Shape" d="m8.55 35.98c-.47073274-.0220521-.93725386-.0992462-1.39-.23-3.43-1.02-4.3-4.75-5.16-4.75.86 0 1.73-3.73 5.16-4.74.36567256.3011348.7690785.5532635 1.2.75-.24146972 1.3162327-.36197227 2.6518026-.36 3.99-.00108313 1.6752145.18337466 3.3453959.55 4.98z"/><path id="Shape" d="m12.17 44.19c-.4462978.1589228-.9093057.266287-1.38.32-3.56.37-5.79-2.74-6.58-2.41.79-.33.17-4.11 2.95-6.35.45274614.1307538.91926726.2079479 1.39.23.64993137 2.9497626 1.8805068 5.7406533 3.62 8.21z"/><path id="Shape" d="m18.65 50.4c-.3496611.314893-.7357375.5868251-1.15.81h-.01c-3.15 1.71-6.39-.31-7 .3.61-.61-1.41-3.85.3-7 .4706943-.053713.9337022-.1610772 1.38-.32 1.7277408 2.4784438 3.9303115 4.5892408 6.48 6.21z"/><path id="Shape" d="m27.01 53.64c-.1967365.4309215-.4488652.8343274-.75 1.2-2.25 2.78-6.03 2.16-6.36 2.95.33-.79-2.78-3.02-2.41-6.58h.01c.4142625-.2231749.8003389-.495107 1.15-.81 2.5420769 1.6279584 5.3847738 2.7296735 8.36 3.24z"/><path id="Shape" d="m35.98 53.45c-.0220521.4707327-.0992462.9372539-.23 1.39-1.02 3.43-4.75 4.3-4.75 5.16 0-.86-3.73-1.73-4.74-5.16.3011348-.3656726.5532635-.7690785.75-1.2 1.3162327.2414697 2.6518026.3619723 3.99.36 1.6752145.0010831 3.3453959-.1833747 4.98-.55z"/></g><path id="Shape" d="m32.931 53.91c-.038071.3139208-.0985588.6247147-.181.93-.5758626 1.6450356-1.731212 3.0239896-3.25 3.879.839.554 1.5.92 1.5 1.281 0-.86 3.73-1.73 4.75-5.16.1307538-.4527461.2079479-.9192673.23-1.39-1.0046796.2225473-2.0233819.3762381-3.049.46z" fill="#0377bc"/><path id="Shape" d="m42.1 57.79c-.33-.79-4.11-.17-6.35-2.95.1307538-.4527461.2079479-.9192673.23-1.39 2.9497626-.6499314 5.7406533-1.8805068 8.21-3.62.1589228.4462978.266287.9093057.32 1.38.37 3.56-2.74 5.79-2.41 6.58z" fill="#02a9f4"/><path id="Shape" d="m44.51 51.21c-.053713-.4706943-.1610772-.9337022-.32-1.38-.8529297.5896119-1.74499 1.1205047-2.67 1.589.173 2.609-1.491 4.481-2.166 5.57 1.394.356 2.569.377 2.746.8-.33-.789 2.78-3.019 2.41-6.579z" fill="#0377bc"/><path id="Shape" d="m51.51 51.51c-.61-.61-3.85 1.41-7-.3-.053713-.4706943-.1610772-.9337022-.32-1.38 2.4784438-1.7277408 4.5892408-3.9303115 6.21-6.48.314893.3496611.5868251.7357375.81 1.15v.01c1.71 3.15-.31 6.39.3 7z" fill="#02a9f4"/><path id="Shape" d="m51.21 44.51v-.01c-.2231749-.4142625-.495107-.8003389-.81-1.15-.5228272.8090258-1.0966556 1.5839279-1.718 2.32.78 2.747-.707 5.305-.172 5.84-.3-.3-1.241.037-2.493.252 2.612.571 4.983-.762 5.493-.252-.61-.61 1.41-3.85-.3-7z" fill="#0377bc"/><path id="Shape" d="m57.79 42.1c-.79-.33-3.02 2.78-6.58 2.41v-.01c-.2231749-.4142625-.495107-.8003389-.81-1.15 1.6279584-2.5420769 2.7296735-5.3847738 3.24-8.36.4333499.1963825.837231.4521739 1.2.76 2.78 2.24 2.16 6.02 2.95 6.35z" fill="#02a9f4"/><path id="Shape" d="m54.84 35.75c-.362769-.3078261-.7666501-.5636175-1.2-.76-.1304487.7580862-.2993331 1.5090544-.506 2.25 1.29 2.125 1.024 4.6 1.656 4.86-.56-.234-1.848 1.257-3.817 2.016.082.127.167.254.237.384v.01c3.56.37 5.79-2.74 6.58-2.41-.79-.33-.17-4.11-2.95-6.35z" fill="#0377bc"/><circle id="Oval" cx="31" cy="31" fill="#3f51b5" r="23"/><path id="Shape" d="m31 8c-.5 0-1 .022-1.5.054 12.0915062.79062706 21.4946304 10.828673 21.4946304 22.946s-9.4031242 22.1553729-21.4946304 22.946c.5.032 1 .054 1.5.054 12.7025492 0 23-10.2974508 23-23s-10.2974508-23-23-23z" fill="#283593"/><path id="Shape" d="m60 31c-.86 0-1.73 3.73-5.16 4.75-.362769-.3078261-.7666501-.5636175-1.2-.76.2414697-1.3162327.3619723-2.6518026.36-3.99.0010831-1.6752145-.1833747-3.3453959-.55-4.98.4684993.0194634.9324377.1001484 1.38.24h.01c3.43 1.01 4.3 4.74 5.16 4.74z" fill="#02a9f4"/><path id="Shape" d="m54.84 26.26h-.01c-.4475623-.1398516-.9115007-.2205366-1.38-.24.088.389.164.783.232 1.181 1.948 1.476 2.639 3.799 3.318 3.799-.681 0-1.374 2.338-3.336 3.818-.01.057-.014.115-.024.172.4333499.1963825.837231.4521739 1.2.76 3.43-1.02 4.3-4.75 5.16-4.75-.86 0-1.73-3.73-5.16-4.74z" fill="#0377bc"/><path id="Shape" d="m57.79 19.9c-.79.33-.17 4.11-2.95 6.36h-.01c-.4475623-.1398516-.9115007-.2205366-1.38-.24-.6499314-2.9497626-1.8805068-5.7406533-3.62-8.21.4462978-.1589228.9093057-.266287 1.38-.32 3.56-.37 5.79 2.74 6.58 2.41z" fill="#02a9f4"/><path id="Shape" d="m51.21 17.49c-.3040072.0378542-.6048186.0980165-.9.18 2.344.632 3.856 2.489 4.477 2.23-.635.265-.362 2.76-1.674 4.9.113.406.243.807.334 1.222.4684993.0194634.9324377.1001484 1.38.24h.01c2.78-2.25 2.16-6.03 2.95-6.36-.787.328-3.017-2.782-6.577-2.412z" fill="#0377bc"/><path id="Shape" d="m51.21 17.49c-.4706943.053713-.9337022.1610772-1.38.32-1.7277408-2.4784438-3.9303115-4.5892408-6.48-6.21.3496611-.314893.7357375-.5868251 1.15-.81h.01c3.15-1.71 6.39.31 7-.3-.61.61 1.41 3.85-.3 7z" fill="#02a9f4"/><path id="Shape" d="m51.51 10.49c-.51.51-2.881-.823-5.493-.253 1.252.216 2.192.554 2.493.253-.535.535.951 3.091.173 5.836.4.482.79.971 1.147 1.484.4462978-.1589228.9093057-.266287 1.38-.32 1.71-3.15-.31-6.39.3-7z" fill="#0377bc"/><path id="Shape" d="m44.51 10.79h-.01c-.4142625.2231749-.8003389.495107-1.15.81-2.5420769-1.62795845-5.3847738-2.72967352-8.36-3.24.1963825-.43334989.4521739-.83723104.76-1.2 2.24-2.78 6.02-2.16 6.35-2.95-.33.79 2.78 3.02 2.41 6.58z" fill="#02a9f4"/><path id="Shape" d="m42.1 4.21c-.177.424-1.352.445-2.746.8.673 1.085 2.327 2.947 2.167 5.541.626.323 1.238.67 1.829 1.048.3496611-.314893.7357375-.5868251 1.15-.81h.01c.37-3.559-2.74-5.789-2.41-6.579z" fill="#0377bc"/><path id="Shape" d="m51.49 20.56-20.49 33.44-20.46-33.5c.26-.51.54-1.01.84-1.5h39.22c.3234064.5042822.6204711 1.02498.89 1.56z" fill="#02a9f4"/><circle id="Oval" cx="31" cy="31" fill="#00bcd4" r="12"/><path id="Shape" d="m31 19c-.5016016.0018663-1.0025897.0352655-1.5.1 5.9981525.7514856 10.4985957 5.8509554 10.4985957 11.896s-4.5004432 11.1445144-10.4985957 11.896c4.4513412.6000263 8.8650932-1.3360521 11.4384127-5.0174236 2.5733196-3.6813716 2.8753186-8.4916109.7826423-12.4659255s-6.2296207-6.4472272-10.721055-6.4086509z" fill="#00838f"/><path id="Shape" d="m60.294 30.044c-.126-.148-.336-.475-.5-.723-.7933814-1.3807357-1.9108692-2.5476456-3.256-3.4.9167578-1.3051141 1.5028839-2.8133252 1.708-4.395.053-.291.123-.672.183-.858.2282708-.1901328.3601857-.4719175.36-.769-.0010607-.1321488-.0275422-.2628589-.078-.385-.1668546-.4034013-.5761056-.6519475-1.011-.614-.173-.09-.491-.309-.734-.476-1.2626133-.9732193-2.7426962-1.6252382-4.313-1.9.349087-1.5542084.3147665-3.1700162-.1-4.708-.062-.289-.143-.669-.159-.863.2058431-.3880816.1343118-.8650572-.1763155-1.17568451-.3106273-.31062733-.7876029-.38215859-1.1756845-.17631549-.194-.016-.574-.1-.863-.159-1.5377245-.41420303-3.1530715-.44852101-4.707-.1-.2749535-1.57054967-.9269447-3.05091285-1.9-4.314-.167-.243-.386-.561-.476-.734 0-.031.005-.062.005-.093.000739-.42156454-.262975-.79831668-.6593225-.94193383-.3963474-.14361715-.8401932-.02325045-1.1096775.30093383-.186.06-.567.13-.857.183-1.5803753.2040922-3.0873741.78959435-4.391 1.706-.8541286-1.343153-2.0206757-2.45960715-3.4-3.254-.249-.161-.576-.372-.725-.5-.1288709-.41995441-.5167171-.70663333-.956-.70663333s-.8271291.28667892-.956.70663333c-.148.126-.475.336-.723.5-1.3804697.79373661-2.5473022 1.9111503-3.4 3.256-1.3046708-.91689149-2.8125934-1.50303894-4.394-1.708-.291-.053-.672-.123-.858-.183-.2699569-.32798881-.7176709-.44962753-1.1164844-.30333591-.3988134.14629161-.6616774.52858252-.6555156.95333591v.093c-.09.173-.309.491-.476.734-.9730464 1.26271593-1.6250458 2.74275445-1.9 4.313-1.5542606-.34856545-3.1699419-.31424766-4.708.1-.289.062-.669.143-.863.159-.3872034-.19996322-.8593171-.126151-1.16700873.182455-.30769161.308606-.38010258.7809366-.17899127 1.167545-.016.194-.1.574-.159.863-.41468201 1.5376559-.44900246 3.1531197-.1 4.707-1.57054967.2749535-3.05091285.9269447-4.314 1.9-.243.167-.561.386-.734.476-.4356496-.0408454-.84726211.2062842-1.016.61-.05045776.1221411-.07693927.2528512-.078.385-.00018566.2970825.13172918.5788672.36.769.06.186.13.567.183.858.20493396 1.5815565.79070379 3.0897337 1.707 4.395-1.34420398.8531663-2.46119096 2.0199115-3.255 3.4-.162.248-.372.575-.5.723-.41995441.1288709-.70663333.5167171-.70663333.956s.28667892.8271291.70663333.956c.126.149.337.476.5.725.79507264 1.3801226 1.91303111 2.5468074 3.258 3.4-.91800486 1.3031482-1.50490825 2.81022-1.71 4.391-.053.29-.123.671-.183.857-.22827082.1901328-.36018566.4719175-.36.769.00106073.1321488.02754224.2628589.078.385.16674969.4060789.57883716.6559272 1.016.616.173.09.491.309.734.476 1.25985275.9772467 2.73883738 1.6328189 4.309 1.91-.34701022 1.5517239-.3126971 3.1644401.1 4.7.062.289.143.669.159.863-.2058431.3880816-.13431184.8650572.17631549 1.1756845.31062731.3106273.78760291.3821586 1.17568451.1763155.194.016.574.1.863.159.9076629.2194672 1.8363917.3401684 2.77.36.6543244-.0015946 1.3055898-.089349 1.937-.261.2753391 1.569825.9273076 3.0494503 1.9 4.312.167.243.386.561.476.734v.093c-.000739.4215645.262975.7983167.6593225.9419338.3963474.1436172.8401932.0232505 1.1096775-.3009338.186-.06.567-.13.858-.183 1.5815565-.204934 3.0897337-.7907038 4.395-1.707.8531663 1.344204 2.0199115 2.461191 3.4 3.255.248.162.575.372.723.5.1288709.4199544.5167171.7066333.956.7066333s.8271291-.2866789.956-.7066333c.149-.126.476-.337.725-.5 1.3801226-.7950726 2.5468074-1.9130311 3.4-3.258 1.3031482.9180049 2.81022 1.5049082 4.391 1.71.29.053.671.123.857.183.2702257.3261753.7166349.4467221 1.1143155.3009058.3976806-.1458162.6603563-.5263607.6556845-.9499058 0-.031 0-.062-.005-.093.09-.173.309-.491.476-.734.9728393-1.2628389 1.6248152-2.7428243 1.9-4.313.6316138.1724427 1.2832708.2605408 1.938.262.9336083-.0198316 1.8623371-.1405328 2.77-.36.289-.062.669-.143.863-.159.3880816.2058431.8650572.1343118 1.1756845-.1763155s.3821586-.7876029.1763155-1.1756845c.016-.194.1-.574.159-.863.4114437-1.5340389.4457525-3.1448334.1-4.695 1.5706875-.2770504 3.0501028-.9330046 4.31-1.911.243-.167.561-.386.734-.476.4356496.0408454.8472621-.2062842 1.016-.61.0504578-.1221411.0769393-.2528512.078-.385.0001857-.2970825-.1317292-.5788672-.36-.769-.06-.186-.13-.567-.183-.857-.2040922-1.5803753-.7895944-3.0873741-1.706-4.391 1.343153-.8541286 2.4596072-2.0206757 3.254-3.4.161-.249.372-.576.5-.725.4199544-.1288709.7066333-.5167171.7066333-.956s-.2866789-.8271291-.7066333-.956zm-3.876-9.575c-.05.22-.093.454-.137.7-.1459908 1.4817257-.7523699 2.880524-1.734 4-.094-.02-.188-.048-.283-.063-.5934449-2.3361085-1.5374969-4.5687914-2.8-6.622 1.5958858.0036534 3.13977.5678331 4.362 1.594.205.136.401.271.592.391zm-23.582 32.448 18.526-30.234c2.6527855 6.4819414 2.05813 13.8400189-1.6011275 19.8118419-3.6592576 5.971823-9.9451205 9.8425911-16.9248725 10.4221581zm-23.836-21.917c-.00178147-2.8758031.56332316-5.7237538 1.663-8.381l18.5 30.3c-11.3909232-.9664431-20.14890638-10.4871609-20.163-21.919zm22-22c7.0081211.00114387 13.5955768 3.3442758 17.734 9h-35.468c4.1384232-5.6557242 10.7258789-8.99885613 17.734-9zm-19.04 11h12.14c-3.7321651 2.3380495-6.0248689 6.4084458-6.09 10.812l-6.319-10.346c.087-.157.179-.311.269-.466zm19.04 22c-6.0751322 0-11-4.9248678-11-11s4.9248678-11 11-11 11 4.9248678 11 11c-.0071635 6.0721626-4.9278374 10.9928365-11 11zm0 2c2.0149318-.0016717 4.0014116-.4756869 5.8-1.384l-5.8 9.467-5.772-9.452c1.7915277.8985243 3.7677759 1.3672498 5.772 1.369zm12.994-13.12c-.0435449-4.4284492-2.34058-8.52949-6.094-10.88h12.14c.1.174.2.345.3.522zm5.766-19.48c.241.052.474.1.7.138.037.224.086.457.138.7.4306647 1.4243604.4033824 2.9479711-.078 4.356-.1.019-.193.034-.289.058-1.4430447-1.926074-3.1653303-3.6261148-5.11-5.044 1.4740207-.6115313 3.1161654-.6851606 4.639-.208zm-8.924-5.681c.242-.044.475-.087.7-.137.12.191.255.387.4.59.940496 1.14943657 1.499717 2.56321716 1.6 4.045-.086.056-.174.109-.257.168-2.0631782-1.23252877-4.3007772-2.14617853-6.637-2.71 1.1258327-1.12298321 2.6100905-1.8152122 4.194-1.956zm-10.428-1.837c.207-.134.407-.264.592-.4.185.133.386.263.594.4 1.3102928.7004398 2.3694802 1.79213684 3.03 3.123-.056.082-.116.161-.169.246-2.3809694-.34828623-4.8008515-.33547549-7.178.038.6143867-1.46606404 1.721932-2.67124035 3.131-3.407zm-10.334 2.29c.14-.2.275-.4.395-.59.22.05.454.093.7.137 1.481525.14603689 2.8802145.75201908 4 1.733-.019.094-.046.189-.061.283-2.3364747.59329106-4.5695099 1.53734943-6.623 2.8.0043867-1.59518523.5665005-3.1386104 1.589-4.363zm-8.674 6.068c.052-.241.1-.474.138-.7.224-.037.457-.086.7-.138 1.4243604-.4306647 2.9479711-.4033824 4.356.078.019.1.034.193.058.289-1.926074 1.4430447-3.6261148 3.1653303-5.044 5.11-.6115313-1.4740207-.6851606-3.1161654-.208-4.639zm-5.228 7.834c1.1500468-.9394569 2.56348286-1.4985416 4.045-1.6.056.086.109.174.168.257-1.23363807 2.0657072-2.14796486 4.3060101-2.712 6.645-1.12245314-1.1316504-1.81370427-2.6202813-1.954-4.208-.044-.242-.087-.476-.137-.7.191-.118.387-.254.59-.394zm-2.289 11.52c-.134-.208-.264-.409-.4-.594.132-.185.262-.385.4-.592.70125848-1.3111362 1.79592451-2.36943 3.13-3.026.08.055.157.114.24.165-.34890827 2.3836598-.33542254 4.8063721.04 7.186-1.46737771-.6175383-2.6733393-1.7276595-3.41-3.139zm1.7 9.937c.05-.22.093-.453.137-.7.14467158-1.4828237.75278433-2.8823927 1.738-4 .092.019.188.046.279.06.59345233 2.3357916 1.53750696 4.5681436 2.8 6.621-1.59561353-.0051792-3.13899435-.5691749-4.362-1.594-.206-.132-.402-.267-.593-.387zm6.657 9.069c-.241-.052-.474-.1-.7-.138-.037-.224-.086-.457-.138-.7-.4306647-1.4243604-.4033824-2.9479711.078-4.356.1-.019.193-.034.289-.058 1.4430447 1.926074 3.1653303 3.6261148 5.11 5.044-1.4740207.6115313-3.1161654.6851606-4.639.208zm8.925 5.685c-.242.044-.476.087-.7.137-.12-.191-.255-.387-.395-.59-.940496-1.1494366-1.499717-2.5632172-1.6-4.045.086-.056.174-.109.257-.168 2.0657072 1.2336381 4.3060101 2.1479649 6.645 2.712-1.1319802 1.1207762-2.6201553 1.810565-4.207 1.95zm10.429 1.836c-.208.134-.409.264-.594.4-.185-.132-.385-.262-.592-.4-1.3111362-.7012585-2.36943-1.7959245-3.026-3.13.055-.08.114-.157.165-.24 1.1435455.1656427 2.2975201.2488572 3.453.249 1.2500299-.0002 2.4981428-.097829 3.733-.292-.6177324 1.4670046-1.7278321 2.6725892-3.139 3.409zm10.332-2.289c-.14.2-.275.4-.4.59-.22-.05-.453-.093-.7-.137-1.4828237-.1446716-2.8823927-.7527843-4-1.738.019-.092.046-.188.06-.279 2.3357916-.5934523 4.5681436-1.537507 6.621-2.8-.0028393 1.5931611-.5620411 3.1352988-1.581 4.36zm8.674-6.072c-.052.241-.1.474-.138.7-.224.037-.457.086-.7.138-1.4242946.4311384-2.9480537.4038535-4.356-.078-.019-.1-.034-.193-.058-.289 1.926074-1.4430447 3.6261148-3.1653303 5.044-5.11.6115313 1.4740207.6851606 3.1161654.208 4.639zm5.232-7.834c-1.1493005.9407276-2.563158 1.499979-4.045 1.6-.056-.085-.109-.173-.168-.256 1.2325288-2.0631782 2.1461785-4.3007772 2.71-6.637 1.1242503 1.1273766 1.8165799 2.6139739 1.956 4.2.044.242.087.475.137.7-.195.118-.391.253-.594.393zm2.289-10.332c-.7004398 1.3102928-1.7921368 2.3694802-3.123 3.03-.082-.056-.161-.116-.246-.169.3486102-2.3819787.3354619-4.8029483-.039-7.181 1.467761.6140294 2.6739747 1.7229393 3.409 3.134.134.207.264.407.4.592-.141.185-.271.386-.405.594z" fill="#000"/></g></g></svg>